:FULLY-SPECIFIED
:FORCE-ALL-JOINTS-BE-3DOF
:DEGREES
2344
root 0.676706 14.0754 -18.4184 -163.648 -51.3019 169.979
lfemur -1.21946 -5.87421 0.850517
ltibia 30.9412 -0 0
lfoot -12.2886 27.4256 -0.0300331
ltoes -46.9127 0 0
rfemur -69.0479 -13.5896 11.9598
rtibia 79.1033 -0 0
rfoot -10.1571 -15.5526 0.0638476
rtoes 6.12406 -0 0
lowerback 19.4758 3.51783 -4.1146
upperback 0.305508 3.50534 -0.767411
thorax -10.8215 1.78073 0.503132
lowerneck -4.92988 -3.77321 -5.88142
upperneck 2.39185 -4.72698 1.38032
head 1.88237 -2.38387 1.33727
lclavicle -2.66371e-14 3.18055e-15 0
lhumerus -42.7435 -18.7875 89.6692
lradius 100.604 -0 0
lwrist 53.376 0 0
lhand -23.1764 43.5301 0.012191
lfingers 7.12502 -0 0
lthumb 3.27298 73.4534 0.0138085
rclavicle -2.66371e-14 3.18055e-15 0
rhumerus 50.6177 10.0366 -47.2973
rradius 44.7976 -0 0
rwrist 8.39483 0 0
rhand -7.64687 -38.0107 -0.0106038
rfingers 7.12502 -0 0
rthumb 18.2477 -67.1641 -0.00667528
2345
root 0.670473 14.1003 -18.5749 -162.801 -54.1895 169.216
lfemur -2.20837 -5.47339 0.535693
ltibia 32.1718 -0 0
lfoot -12.1026 27.2969 -0.0393125
ltoes -46.2888 0 0
rfemur -68.599 -13.1856 12.0841
rtibia 79.0281 -0 0
rfoot -10.3588 -15.8043 0.0835797
rtoes 5.87915 -0 0
lowerback 19.4474 3.47639 -3.97959
upperback 0.271268 3.48955 -0.731739
thorax -10.8374 1.76858 0.470348
lowerneck -4.95141 -3.49376 -5.65892
upperneck 2.54206 -4.35821 1.1227
head 1.93635 -2.20173 1.24206
lclavicle -2.66371e-14 3.18055e-15 0
lhumerus -41.0532 -19.8588 89.6075
lradius 100.845 -0 0
lwrist 51.5753 0 0
lhand -23.493 43.4995 0.0159586
lfingers 7.12502 -0 0
lthumb 2.96732 73.4174 0.0180759
rclavicle -2.66371e-14 3.18055e-15 0
rhumerus 49.9482 11.1522 -47.2365
rradius 45.8448 -0 0
rwrist 7.85489 0 0
rhand -7.48545 -38.0631 -0.0138798
rfingers 7.12502 -0 0
rthumb 18.4027 -67.1985 -0.0087375
2346
root 0.664239 14.1253 -18.7313 -161.689 -57.4155 168.196
lfemur -3.31824 -5.0308 0.174999
ltibia 33.5506 -0 0
lfoot -11.8942 27.1526 -0.0492131
ltoes -45.5898 0 0
rfemur -68.0957 -12.7341 12.227
rtibia 78.9437 -0 0
rfoot -10.585 -16.0864 0.104635
rtoes 5.60475 -0 0
lowerback 19.4155 3.43004 -3.8283
upperback 0.232893 3.47189 -0.691761
thorax -10.8552 1.75495 0.43362
lowerneck -4.97424 -3.18055 -5.40983
upperneck 2.70831 -3.94422 0.835339
head 1.99647 -1.99755 1.13559
lclavicle -2.66371e-14 3.18055e-15 0
lhumerus -39.1437 -21.0566 89.4977
lradius 101.116 -0 0
lwrist 49.5577 0 0
lhand -23.8477 43.4652 0.0199789
lfingers 7.12502 -0 0
lthumb 2.62486 73.3771 0.0226294
rclavicle -2.66371e-14 3.18055e-15 0
rhumerus 49.1962 12.403 -47.1841
rradius 47.0182 -0 0
rwrist 7.24991 0 0
rhand -7.30458 -38.1218 -0.0173748
rfingers 7.12502 -0 0
rthumb 18.5764 -67.237 -0.0109376
2347
root 0.658006 14.1502 -18.8878 -160.203 -60.9476 166.809
lfemur -4.54097 -4.55229 -0.231173
ltibia 35.0667 -0 0
lfoot -11.665 26.9939 -0.0594934
ltoes -44.8212 0 0
rfemur -67.542 -12.2391 12.3885
rtibia 78.851 -0 0
rfoot -10.8337 -16.3967 0.126501
rtoes 5.30303 -0 0
lowerback 19.3803 3.37917 -3.66193
upperback 0.190685 3.4525 -0.647791
thorax -10.8747 1.73996 0.393242
lowerneck -4.99775 -2.83606 -5.13616
upperneck 2.88861 -3.48808 0.520926
head 2.06213 -1.77292 1.01879
lclavicle -2.66371e-14 3.18055e-15 0
lhumerus -37.0229 -22.3687 89.3262
lradius 101.414 -0 0
lwrist 47.3392 0 0
lhand -24.2377 43.4274 0.0241538
lfingers 7.12502 -0 0
lthumb 2.24829 73.3328 0.0273579
rclavicle -2.66371e-14 3.18055e-15 0
rhumerus 48.3663 13.7788 -47.1455
rradius 48.3083 -0 0
rwrist 6.58472 0 0
rhand -7.1057 -38.1864 -0.0210037
rfingers 7.12502 -0 0
rthumb 18.7674 -67.2793 -0.013222
2348
root 0.651773 14.1751 -19.0443 -158.152 -64.7485 164.865
lfemur -5.86847 -4.04382 -0.682328
ltibia 36.709 -0 0
lfoot -11.4168 26.822 -0.0699135
ltoes -43.9887 0 0
rfemur -66.9418 -11.7046 12.5686
rtibia 78.7506 -0 0
rfoot -11.1033 -16.7329 0.148668
rtoes 4.97619 -0 0
lowerback 19.342 3.32418 -3.48169
upperback 0.144946 3.43153 -0.600143
thorax -10.8959 1.7237 0.349506
lowerneck -5.02136 -2.46275 -4.83996
upperneck 3.081 -2.99284 0.18211
head 2.13273 -1.52943 0.892572
lclavicle -2.66371e-14 3.18055e-15 0
lhumerus -34.6973 -23.7823 89.0788
lradius 101.736 -0 0
lwrist 44.936 0 0
lhand -24.6602 43.3864 0.0283861
lfingers 7.12502 -0 0
lthumb 1.84037 73.2847 0.0321514
rclavicle -2.66371e-14 3.18055e-15 0
rhumerus 47.4624 15.2698 -47.1269
rradius 49.7058 -0 0
rwrist 5.86413 0 0
rhand -6.89026 -38.2564 -0.0246818
rfingers 7.12502 -0 0
rthumb 18.9742 -67.3252 -0.0155373
2349
root 0.64554 14.2001 -19.2007 -155.185 -68.7714 162.009
lfemur -7.2927 -3.51137 -1.1778
ltibia 38.4666 -0 0
lfoot -11.151 26.6379 -0.0802395
ltoes -43.0976 0 0
rfemur -66.2987 -11.1347 12.7673
rtibia 78.6431 -0 0
rfoot -11.392 -17.0928 0.170637
rtoes 4.62641 -0 0
lowerback 19.3007 3.26546 -3.28876
upperback 0.0959777 3.40914 -0.549134
thorax -10.9186 1.70628 0.302708
lowerneck -5.04448 -2.06311 -4.52321
upperneck 3.28356 -2.4616 -0.178488
head 2.20768 -1.26868 0.757837
lclavicle -2.66371e-14 3.18055e-15 0
lhumerus -32.1718 -25.2835 88.7409
lradius 102.081 -0 0
lwrist 42.3641 0 0
lhand -25.1124 43.3425 0.0325807
lfingers 7.12502 -0 0
lthumb 1.40381 73.2332 0.036902
rclavicle -2.66371e-14 3.18055e-15 0
rhumerus 46.4882 16.8654 -47.134
rradius 51.2015 -0 0
rwrist 5.09296 0 0
rhand -6.65969 -38.3314 -0.0283264
rfingers 7.12502 -0 0
rthumb 19.1956 -67.3743 -0.0178315
2350
root 0.639307 14.225 -19.3572 -150.578 -72.9467 157.519
lfemur -8.80561 -2.96094 -1.71667
ltibia 40.3286 -0 0
lfoot -10.8694 26.4429 -0.0902469
ltoes -42.1537 0 0
rfemur -65.6167 -10.5333 12.9845
rtibia 78.5292 -0 0
rfoot -11.698 -17.4742 0.191931
rtoes 4.25586 -0 0
lowerback 19.2569 3.20341 -3.08434
upperback 0.0440832 3.38546 -0.495078
thorax -10.9426 1.68781 0.253141
lowerneck -5.06655 -1.63962 -4.18792
upperneck 3.49441 -1.89746 -0.558295
head 2.28641 -0.99226 0.615492
lclavicle -2.66371e-14 3.18055e-15 0
lhumerus -29.4503 -26.8572 88.2977
lradius 102.446 -0 0
lwrist 39.6396 0 0
lhand -25.5914 43.296 0.0366463
lfingers 7.12502 -0 0
lthumb 0.941329 73.1787 0.0415066
rclavicle -2.66371e-14 3.18055e-15 0
rhumerus 45.4464 18.5554 -47.1727
rradius 52.7859 -0 0
rwrist 4.27602 0 0
rhand -6.41543 -38.4108 -0.0318584
rfingers 7.12502 -0 0
rthumb 19.4302 -67.4264 -0.0200548
2351
root 0.633073 14.2499 -19.5137 -142.642 -77.1424 149.704
lfemur -10.3991 -2.39844 -2.29774
ltibia 42.2838 -0 0
lfoot -10.5737 26.2381 -0.0997241
ltoes -41.1625 0 0
rfemur -64.8994 -9.90463 13.2199
rtibia 78.4097 -0 0
rfoot -12.0194 -17.8748 0.2121
rtoes 3.86675 -0 0
lowerback 19.2106 3.13842 -2.86964
upperback -0.0104351 3.36065 -0.438291
thorax -10.9677 1.66838 0.201098
lowerneck -5.08706 -1.19478 -3.83606
upperneck 3.71173 -1.30355 -0.954788
head 2.36834 -0.701778 0.466432
lclavicle -2.66371e-14 3.18055e-15 0
lhumerus -26.5353 -28.4872 87.7345
lradius 102.83 -0 0
lwrist 36.7785 0 0
lhand -26.0945 43.2471 0.040497
lfingers 7.12502 -0 0
lthumb 0.455668 73.1213 0.0458677
rclavicle -2.66371e-14 3.18055e-15 0
rhumerus 44.3394 20.329 -47.2492
rradius 54.4498 -0 0
rwrist 3.41813 0 0
rhand -6.15892 -38.4941 -0.035203
rfingers 7.12502 -0 0
rthumb 19.6764 -67.4811 -0.0221602
2352
root 0.62684 14.2749 -19.6701 -126.896 -81.0165 134.083
lfemur -12.0652 -1.8297 -2.91947
ltibia 44.3214 -0 0
lfoot -10.2656 26.0245 -0.108475
ltoes -40.1295 0 0
rfemur -64.1504 -9.25261 13.4732
rtibia 78.2851 -0 0
rfoot -12.3545 -18.2924 0.230725
rtoes 3.46124 -0 0
lowerback 19.162 3.07087 -2.64586
upperback -0.0672742 3.33485 -0.379088
thorax -10.994 1.64812 0.146873
lowerneck -5.10552 -0.731075 -3.46961
upperneck 3.93378 -0.683059 -1.3655
head 2.4529 -0.398837 0.311544
lclavicle -2.66371e-14 3.18055e-15 0
lhumerus -23.4285 -30.1562 87.0368
lradius 103.23 -0 0
lwrist 33.7969 0 0
lhand -26.6187 43.1962 0.0440531
lfingers 7.12502 -0 0
lthumb -0.0504512 73.0615 0.0498951
rclavicle -2.66371e-14 3.18055e-15 0
rhumerus 43.1687 22.1755 -47.3691
rradius 56.1837 -0 0
rwrist 2.52412 0 0
rhand -5.8916 -38.581 -0.0382913
rfingers 7.12502 -0 0
rthumb 19.9331 -67.538 -0.0241042
2353
root 0.620607 14.2998 -19.8266 -93.5089 -83.4618 100.825
lfemur -13.7955 -1.26035 -3.57994
ltibia 46.4304 -0 0
lfoot -9.94654 25.8035 -0.116323
ltoes -39.0604 0 0
rfemur -63.3736 -8.58125 13.744
rtibia 78.1561 -0 0
rfoot -12.7015 -18.7247 0.24743
rtoes 3.04154 -0 0
lowerback 19.1115 3.00116 -2.4142
upperback -0.126131 3.3082 -0.317787
thorax -11.0211 1.62712 0.0907588
lowerneck -5.1215 -0.251016 -3.0905
upperneck 4.15891 -0.0391777 -1.78804
head 2.53957 -0.085047 0.151706
lclavicle -2.66371e-14 3.18055e-15 0
lhumerus -20.1308 -31.8457 86.1909
lradius 103.644 -0 0
lwrist 30.7109 0 0
lhand -27.1613 43.1434 0.0472425
lfingers 7.12502 -0 0
lthumb -0.574301 72.9996 0.0535071
rclavicle -2.66371e-14 3.18055e-15 0
rhumerus 41.9355 24.0838 -47.5385
rradius 57.9783 -0 0
rwrist 1.59879 0 0
rhand -5.61492 -38.671 -0.0410607
rfingers 7.12502 -0 0
rthumb 20.1988 -67.597 -0.0258474
2354
root 0.614374 14.3247 -19.9831 -50.9203 -82.4917 58.3693
lfemur -15.5817 -0.695813 -4.27682
ltibia 48.5998 -0 0
lfoot -9.61835 25.576 -0.123111
ltoes -37.9606 0 0
rfemur -62.5726 -7.89452 14.0316
rtibia 78.0234 -0 0
rfoot -13.0585 -19.1695 0.261881
rtoes 2.60981 -0 0
lowerback 19.0593 2.92967 -2.17585
upperback -0.1867 3.28087 -0.254703
thorax -11.0489 1.60549 0.0330491
lowerneck -5.13463 0.242889 -2.70068
upperneck 4.38553 0.624849 -2.22006
head 2.6278 0.237979 -0.0122141
lclavicle -2.66371e-14 3.18055e-15 0
lhumerus -16.6429 -33.5365 85.184
lradius 104.07 -0 0
lwrist 27.5365 0 0
lhand -27.7194 43.0891 0.0500015
lfingers 7.12502 -0 0
lthumb -1.11315 72.9359 0.0566316
rclavicle -2.66371e-14 3.18055e-15 0
rhumerus 40.6402 26.0427 -47.7632
rradius 59.8244 -0 0
rwrist 0.646968 0 0
rhand -5.33031 -38.7636 -0.0434561
rfingers 7.12502 -0 0
rthumb 20.472 -67.6577 -0.0273552
2355
root 0.608141 14.3497 -20.1395 -27.0386 -78.7945 34.6236
lfemur -17.4155 -0.141218 -5.00737
ltibia 50.8185 -0 0
lfoot -9.28267 25.3434 -0.128707
ltoes -36.8358 0 0
rfemur -61.7511 -7.19635 14.3353
rtibia 77.8877 -0 0
rfoot -13.4238 -19.6245 0.273793
rtoes 2.16825 -0 0
lowerback 19.0056 2.85677 -1.93203
upperback -0.248679 3.25297 -0.190155
thorax -11.0774 1.58334 -0.0259634
lowerneck -5.14458 0.748122 -2.30207
upperneck 4.61218 1.30574 -2.65928
head 2.71709 0.568621 -0.17936
lclavicle -2.66371e-14 3.18055e-15 0
lhumerus -12.9662 -35.2083 84.0051
lradius 104.505 -0 0
lwrist 24.2899 0 0
lhand -28.2902 43.0335 0.0522757
lfingers 7.12502 -0 0
lthumb -1.66428 72.8706 0.0592071
rclavicle -2.66371e-14 3.18055e-15 0
rhumerus 39.2829 28.0409 -48.0489
rradius 61.7124 -0 0
rwrist -0.326533 0 0
rhand -5.03922 -38.8582 -0.0454304
rfingers 7.12502 -0 0
rthumb 20.7515 -67.7198 -0.0285979
2356
root 0.601907 14.3746 -20.296 -15.7666 -74.0853 23.4912
lfemur -19.2882 0.398653 -5.76841
ltibia 53.0757 -0 0
lfoot -8.94116 25.1067 -0.133
ltoes -35.6915 0 0
rfemur -60.9128 -6.49059 14.6541
rtibia 77.7497 -0 0
rfoot -13.7955 -20.0875 0.282934
rtoes 1.71905 -0 0
lowerback 18.9506 2.78285 -1.68392
upperback -0.311762 3.22467 -0.124459
thorax -11.1064 1.56078 -0.0859862
lowerneck -5.15109 1.26216 -1.89658
upperneck 4.83746 2.00018 -3.1035
head 2.80695 0.905255 -0.348884
lclavicle -2.66371e-14 3.18055e-15 0
lhumerus -9.10331 -36.8402 82.6455
lradius 104.948 -0 0
lwrist 20.987 0 0
lhand -28.871 42.9769 0.0540209
lfingers 7.12502 -0 0
lthumb -2.22496 72.8043 0.0611835
rclavicle -2.66371e-14 3.18055e-15 0
rhumerus 37.8631 30.0668 -48.4013
rradius 63.6332 -0 0
rwrist -1.31689 0 0
rhand -4.74308 -38.9546 -0.0469453
rfingers 7.12502 -0 0
rthumb 21.0359 -67.7829 -0.0295515
